@startuml
title
  GML - 3.2.1 - Units - Only XSD based
  http://www.opengis.net/gml/3.2
end title

package gml {
class "gml:UnitOfMeasure" <<DataType>>
class "gml:UnitDefinition" <<ObjectType>> {
  quantityType : gml:quantity [0..1]
  quantityTypeReference : gml:quantityTypeReference [0..1]
  catalogSymbol : gml:catalogSymbol [0..1]
}
class "gml:BaseUnit" <<ObjectType>> {
  unitsSystem : gml:Reference
}
class "gml:DerivedUnit" <<ObjectType>> {
  derivationUnitTerm : gml:derivationUnitTerm [1..*]
}
class "gml:DerivationUnitTerm" <<ObjectType>>
class "gml:ConventionalUnit" <<ObjectType>> {
  conversionToPreferredUnit : gml:conversionToPreferredUnit
  roughConversionToPreferredUnit : gml:roughConversionToPreferredUnit
  derivationUnitTerm : gml:derivationUnitTerm [0..*]
}
class "gml:ConversionToPreferredUnit" <<ObjectType>> {
  # factor : xs:double
  formula : gml:Formula
}
class "gml:Formula" <<DataType>> {
  # a : xs:double [0..1]
  # b : xs:double
  # c : xs:double
  # d : xs:double [0..1]
}
}

' External types (unresolved namespaces)
class "gml:Definition"

"gml:Definition" <|-- "gml:UnitDefinition"
"gml:UnitDefinition" <|-- "gml:BaseUnit"
"gml:UnitDefinition" <|-- "gml:DerivedUnit"
"gml:UnitOfMeasure" <|-- "gml:DerivationUnitTerm"
"gml:UnitDefinition" <|-- "gml:ConventionalUnit"
"gml:UnitOfMeasure" <|-- "gml:ConversionToPreferredUnit"

' Attributes with value types from other namespaces are marked as
' protected members (# ) and shown by default; uncomment the next
' line to hide them.
' hide protected members

footer Generated on 2026-08-03 13:11:00
@enduml
