@startuml
title
  Base - 3.1.1 - Geometrycomplexes - Only XSD based
  http://www.opengis.net/gml
end title

package gml {
class "gml:CompositeCurve" <<ObjectType>> {
  curveMember : gml:curveMember [1..*]
}
class "gml:CompositeCurveProperty" $property {
  CompositeCurve : gml:CompositeCurve
}
class "gml:CompositeSurface" <<ObjectType>> {
  surfaceMember : gml:surfaceMember [1..*]
}
class "gml:CompositeSurfaceProperty" $property {
  CompositeSurface : gml:CompositeSurface
}
class "gml:CompositeSolid" <<ObjectType>> {
  solidMember : gml:solidMember [1..*]
}
class "gml:CompositeSolidProperty" $property {
  CompositeSolid : gml:CompositeSolid
}
class "gml:GeometricComplex" <<ObjectType>> {
  element : gml:GeometricPrimitive [1..*]
}
class "gml:GeometricComplexProperty" $property {
  GeometricComplex : gml:GeometricComplex
  CompositeCurve : gml:CompositeCurve
  CompositeSurface : gml:CompositeSurface
  CompositeSolid : gml:CompositeSolid
}
}

' External types (unresolved namespaces)
abstract class "gml:AbstractCurve"
abstract class "gml:AbstractGeometry"
abstract class "gml:AbstractSolid"
abstract class "gml:AbstractSurface"

"gml:AbstractCurve" <|-- "gml:CompositeCurve"
"gml:AbstractSurface" <|-- "gml:CompositeSurface"
"gml:AbstractSolid" <|-- "gml:CompositeSolid"
"gml:AbstractGeometry" <|-- "gml:GeometricComplex"

' Property pseudo-classes are removed from rendering by default;
' remove the next line to show them.
remove $property

footer Generated on 2026-08-03 13:10:59
@enduml
