@startuml
title
  CityGML - 2.0 - Building - Only XSD based
  http://www.opengis.net/citygml/building/2.0
end title

abstract class "AbstractBuilding" <<DataType>> {
  # class : gml:Code [0..1]
  # function : gml:Code [0..*]
  # usage : gml:Code [0..*]
  # yearOfConstruction : xs:gYear [0..1]
  # yearOfDemolition : xs:gYear [0..1]
  # roofType : gml:Code [0..1]
  # measuredHeight : gml:Length [0..1]
  # storeysAboveGround : xs:nonNegativeInteger [0..1]
  # storeysBelowGround : xs:nonNegativeInteger [0..1]
  # storeyHeightsAboveGround : gml:MeasureOrNullList [0..1]
  # storeyHeightsBelowGround : gml:MeasureOrNullList [0..1]
  # lod0FootPrint : gml:MultiSurface [0..1]
  # lod0RoofEdge : gml:MultiSurface [0..1]
  # lod1Solid : gml:Solid [0..1]
  # lod1MultiSurface : gml:MultiSurface [0..1]
  # lod1TerrainIntersection : gml:MultiCurve [0..1]
  # lod2Solid : gml:Solid [0..1]
  # lod2MultiSurface : gml:MultiSurface [0..1]
  # lod2MultiCurve : gml:MultiCurve [0..1]
  # lod2TerrainIntersection : gml:MultiCurve [0..1]
  # outerBuildingInstallation : BuildingInstallation [0..*]
  # interiorBuildingInstallation : IntBuildingInstallation [0..*]
  # boundedBy : BoundarySurface [0..*]
  # lod3Solid : gml:Solid [0..1]
  # lod3MultiSurface : gml:MultiSurface [0..1]
  # lod3MultiCurve : gml:MultiCurve [0..1]
  # lod3TerrainIntersection : gml:MultiCurve [0..1]
  # lod4Solid : gml:Solid [0..1]
  # lod4MultiSurface : gml:MultiSurface [0..1]
  # lod4MultiCurve : gml:MultiCurve [0..1]
  # lod4TerrainIntersection : gml:MultiCurve [0..1]
  # interiorRoom : InteriorRoom [0..*]
  # consistsOfBuildingPart : BuildingPart [0..*]
  # address : core:Address [0..*]
  #  : _GenericApplicationPropertyOfAbstractBuilding [0..*]
}
class "Building" <<DataType>> {
  #  : _GenericApplicationPropertyOfBuilding [0..*]
}
class "BuildingPart" <<DataType>> {
  #  : _GenericApplicationPropertyOfBuildingPart [0..*]
}
class "BuildingPartProperty" $property {
  #  : BuildingPart
}
class "BuildingInstallation" <<DataType>> {
  # class : gml:Code [0..1]
  # function : gml:Code [0..*]
  # usage : gml:Code [0..*]
  # lod2Geometry : gml:Geometry [0..1]
  # lod3Geometry : gml:Geometry [0..1]
  # lod4Geometry : gml:Geometry [0..1]
  # lod2ImplicitRepresentation : core:ImplicitRepresentation [0..1]
  # lod3ImplicitRepresentation : core:ImplicitRepresentation [0..1]
  # lod4ImplicitRepresentation : core:ImplicitRepresentation [0..1]
  # boundedBy : BoundarySurface [0..*]
  #  : _GenericApplicationPropertyOfBuildingInstallation [0..*]
}
class "BuildingInstallationProperty" $property {
  #  : BuildingInstallation
}
class "IntBuildingInstallation" <<DataType>> {
  # class : gml:Code [0..1]
  # function : gml:Code [0..*]
  # usage : gml:Code [0..*]
  # lod4Geometry : gml:Geometry [0..1]
  # lod4ImplicitRepresentation : core:ImplicitRepresentation [0..1]
  # boundedBy : BoundarySurface [0..*]
  #  : _GenericApplicationPropertyOfIntBuildingInstallation [0..*]
}
class "IntBuildingInstallationProperty" $property {
  #  : IntBuildingInstallation
}
abstract class "AbstractBoundarySurface" <<DataType>> {
  # lod2MultiSurface : gml:MultiSurface [0..1]
  # lod3MultiSurface : gml:MultiSurface [0..1]
  # lod4MultiSurface : gml:MultiSurface [0..1]
  # opening : Opening [0..*]
  #  : _GenericApplicationPropertyOfBoundarySurface [0..*]
}
class "RoofSurface" <<DataType>> {
  #  : _GenericApplicationPropertyOfRoofSurface [0..*]
}
class "WallSurface" <<DataType>> {
  #  : _GenericApplicationPropertyOfWallSurface [0..*]
}
class "GroundSurface" <<DataType>> {
  #  : _GenericApplicationPropertyOfGroundSurface [0..*]
}
class "ClosureSurface" <<DataType>> {
  #  : _GenericApplicationPropertyOfClosureSurface [0..*]
}
class "FloorSurface" <<DataType>> {
  #  : _GenericApplicationPropertyOfFloorSurface [0..*]
}
class "OuterFloorSurface" <<DataType>> {
  #  : _GenericApplicationPropertyOfOuterFloorSurface [0..*]
}
class "InteriorWallSurface" <<DataType>> {
  #  : _GenericApplicationPropertyOfInteriorWallSurface [0..*]
}
class "CeilingSurface" <<DataType>> {
  #  : _GenericApplicationPropertyOfCeilingSurface [0..*]
}
class "OuterCeilingSurface" <<DataType>> {
  #  : _GenericApplicationPropertyOfOuterCeilingSurface [0..*]
}
class "BoundarySurfaceProperty" $property {
  #  : _BoundarySurface
}
class "OpeningProperty" $property {
  #  : _Opening
}
abstract class "AbstractOpening" <<DataType>> {
  # lod3MultiSurface : gml:MultiSurface [0..1]
  # lod4MultiSurface : gml:MultiSurface [0..1]
  # lod3ImplicitRepresentation : core:ImplicitRepresentation [0..1]
  # lod4ImplicitRepresentation : core:ImplicitRepresentation [0..1]
  #  : _GenericApplicationPropertyOfOpening [0..*]
}
class "Window" <<DataType>> {
  #  : _GenericApplicationPropertyOfWindow [0..*]
}
class "Door" <<DataType>> {
  # address : core:Address [0..*]
  #  : _GenericApplicationPropertyOfDoor [0..*]
}
class "Room" <<DataType>> {
  # class : gml:Code [0..1]
  # function : gml:Code [0..*]
  # usage : gml:Code [0..*]
  # lod4Solid : gml:Solid [0..1]
  # lod4MultiSurface : gml:MultiSurface [0..1]
  # boundedBy : BoundarySurface [0..*]
  # interiorFurniture : InteriorFurniture [0..*]
  # roomInstallation : IntBuildingInstallation [0..*]
  #  : _GenericApplicationPropertyOfRoom [0..*]
}
class "BuildingFurniture" <<DataType>> {
  # class : gml:Code [0..1]
  # function : gml:Code [0..*]
  # usage : gml:Code [0..*]
  # lod4Geometry : gml:Geometry [0..1]
  # lod4ImplicitRepresentation : core:ImplicitRepresentation [0..1]
  #  : _GenericApplicationPropertyOfBuildingFurniture [0..*]
}
class "InteriorRoomProperty" $property {
  #  : Room
}
class "InteriorFurnitureProperty" $property {
  #  : BuildingFurniture
}

' External types (unresolved namespaces)
abstract class "core:AbstractCityObject"
abstract class "core:AbstractSite"

"core:AbstractSite" <|-- "AbstractBuilding"
"AbstractBuilding" <|-- "Building"
"AbstractBuilding" <|-- "BuildingPart"
"core:AbstractCityObject" <|-- "BuildingInstallation"
"core:AbstractCityObject" <|-- "IntBuildingInstallation"
"core:AbstractCityObject" <|-- "AbstractBoundarySurface"
"AbstractBoundarySurface" <|-- "RoofSurface"
"AbstractBoundarySurface" <|-- "WallSurface"
"AbstractBoundarySurface" <|-- "GroundSurface"
"AbstractBoundarySurface" <|-- "ClosureSurface"
"AbstractBoundarySurface" <|-- "FloorSurface"
"AbstractBoundarySurface" <|-- "OuterFloorSurface"
"AbstractBoundarySurface" <|-- "InteriorWallSurface"
"AbstractBoundarySurface" <|-- "CeilingSurface"
"AbstractBoundarySurface" <|-- "OuterCeilingSurface"
"core:AbstractCityObject" <|-- "AbstractOpening"
"AbstractOpening" <|-- "Window"
"AbstractOpening" <|-- "Door"
"core:AbstractCityObject" <|-- "Room"
"core:AbstractCityObject" <|-- "BuildingFurniture"

' Property pseudo-classes are removed from rendering by default;
' remove the next line to show them.
remove $property

' Attributes with value types from other namespaces are marked as
' protected members (# ) and shown by default; uncomment the next
' line to hide them.
' hide protected members

footer Generated on 2026-08-03 13:10:54
@enduml
