@startuml
title
  CityGML - 2.0 - Tunnel - Only XSD based
  http://www.opengis.net/citygml/tunnel/2.0
end title

class "AbstractTunnel" <<DataType>> {
  # class : gml:Code [0..1]
  # function : gml:Code [0..*]
  # usage : gml:Code [0..*]
  # yearOfConstruction : xs:gYear [0..1]
  # yearOfDemolition : xs:gYear [0..1]
  # lod1Solid : gml:Solid [0..1]
  # lod1MultiSurface : gml:MultiSurface [0..1]
  # lod1TerrainIntersection : gml:MultiCurve [0..1]
  # lod2Solid : gml:Solid [0..1]
  # lod2MultiSurface : gml:MultiSurface [0..1]
  # lod2MultiCurve : gml:MultiCurve [0..1]
  # lod2TerrainIntersection : gml:MultiCurve [0..1]
  # outerTunnelInstallation : TunnelInstallation [0..*]
  # interiorTunnelInstallation : IntTunnelInstallation [0..*]
  # boundedBy : BoundarySurface [0..*]
  # lod3Solid : gml:Solid [0..1]
  # lod3MultiSurface : gml:MultiSurface [0..1]
  # lod3MultiCurve : gml:MultiCurve [0..1]
  # lod3TerrainIntersection : gml:MultiCurve [0..1]
  # lod4Solid : gml:Solid [0..1]
  # lod4MultiSurface : gml:MultiSurface [0..1]
  # lod4MultiCurve : gml:MultiCurve [0..1]
  # lod4TerrainIntersection : gml:MultiCurve [0..1]
  # interiorHollowSpace : InteriorHollowSpace [0..*]
  # consistsOfTunnelPart : TunnelPart [0..*]
  #  : _GenericApplicationPropertyOfAbstractTunnel [0..*]
}
class "Tunnel" <<DataType>> {
  #  : _GenericApplicationPropertyOfTunnel [0..*]
}
class "TunnelPart" <<DataType>> {
  #  : _GenericApplicationPropertyOfTunnelPart [0..*]
}
class "TunnelPartProperty" $property {
  #  : TunnelPart
}
class "TunnelInstallation" <<DataType>> {
  # class : gml:Code [0..1]
  # function : gml:Code [0..*]
  # usage : gml:Code [0..*]
  # lod2Geometry : gml:Geometry [0..1]
  # lod3Geometry : gml:Geometry [0..1]
  # lod4Geometry : gml:Geometry [0..1]
  # lod2ImplicitRepresentation : core:ImplicitRepresentation [0..1]
  # lod3ImplicitRepresentation : core:ImplicitRepresentation [0..1]
  # lod4ImplicitRepresentation : core:ImplicitRepresentation [0..1]
  # boundedBy : BoundarySurface [0..*]
  #  : _GenericApplicationPropertyOfTunnelInstallation [0..*]
}
class "TunnelInstallationProperty" $property {
  #  : TunnelInstallation
}
class "IntTunnelInstallation" <<DataType>> {
  # class : gml:Code [0..1]
  # function : gml:Code [0..*]
  # usage : gml:Code [0..*]
  # lod4Geometry : gml:Geometry [0..1]
  # lod4ImplicitRepresentation : core:ImplicitRepresentation [0..1]
  # boundedBy : BoundarySurface [0..*]
  #  : _GenericApplicationPropertyOfIntTunnelInstallation [0..*]
}
class "IntTunnelInstallationProperty" $property {
  #  : IntTunnelInstallation
}
class "BoundarySurfaceProperty" $property {
  #  : _BoundarySurface
}
abstract class "AbstractBoundarySurface" <<DataType>> {
  # lod2MultiSurface : gml:MultiSurface [0..1]
  # lod3MultiSurface : gml:MultiSurface [0..1]
  # lod4MultiSurface : gml:MultiSurface [0..1]
  # opening : Opening [0..*]
  #  : _GenericApplicationPropertyOfBoundarySurface [0..*]
}
class "RoofSurface" <<DataType>> {
  #  : _GenericApplicationPropertyOfRoofSurface [0..*]
}
class "WallSurface" <<DataType>> {
  #  : _GenericApplicationPropertyOfWallSurface [0..*]
}
class "GroundSurface" <<DataType>> {
  #  : _GenericApplicationPropertyOfGroundSurface [0..*]
}
class "ClosureSurface" <<DataType>> {
  #  : _GenericApplicationPropertyOfClosureSurface [0..*]
}
class "FloorSurface" <<DataType>> {
  #  : _GenericApplicationPropertyOfFloorSurface [0..*]
}
class "OuterFloorSurface" <<DataType>> {
  #  : _GenericApplicationPropertyOfOuterFloorSurface [0..*]
}
class "InteriorWallSurface" <<DataType>> {
  #  : _GenericApplicationPropertyOfInteriorWallSurface [0..*]
}
class "CeilingSurface" <<DataType>> {
  #  : _GenericApplicationPropertyOfCeilingSurface [0..*]
}
class "OuterCeilingSurface" <<DataType>> {
  #  : _GenericApplicationPropertyOfOuterCeilingSurface [0..*]
}
class "HollowSpace" <<DataType>> {
  # class : gml:Code [0..1]
  # function : gml:Code [0..*]
  # usage : gml:Code [0..*]
  # lod4Solid : gml:Solid [0..1]
  # lod4MultiSurface : gml:MultiSurface [0..1]
  # boundedBy : BoundarySurface [0..*]
  # interiorFurniture : InteriorFurniture [0..*]
  # hollowSpaceInstallation : IntTunnelInstallation [0..*]
  #  : _GenericApplicationPropertyOfHollowSpace [0..*]
}
class "InteriorHollowSpaceProperty" $property {
  #  : HollowSpace
}
class "TunnelFurniture" <<DataType>> {
  # class : gml:Code [0..1]
  # function : gml:Code [0..*]
  # usage : gml:Code [0..*]
  # lod4Geometry : gml:Geometry [0..1]
  # lod4ImplicitRepresentation : core:ImplicitRepresentation [0..1]
  #  : _GenericApplicationPropertyOfTunnelFurniture [0..*]
}
class "InteriorFurnitureProperty" $property {
  #  : TunnelFurniture
}
abstract class "AbstractOpening" <<DataType>> {
  # lod3MultiSurface : gml:MultiSurface [0..1]
  # lod4MultiSurface : gml:MultiSurface [0..1]
  # lod3ImplicitRepresentation : core:ImplicitRepresentation [0..1]
  # lod4ImplicitRepresentation : core:ImplicitRepresentation [0..1]
  #  : _GenericApplicationPropertyOfOpening [0..*]
}
class "OpeningProperty" $property {
  #  : _Opening
}
class "Window" <<DataType>> {
  #  : _GenericApplicationPropertyOfWindow [0..*]
}
class "Door" <<DataType>> {
  #  : _GenericApplicationPropertyOfDoor [0..*]
}

' External types (unresolved namespaces)
abstract class "core:AbstractCityObject"
abstract class "core:AbstractSite"

"core:AbstractSite" <|-- "AbstractTunnel"
"AbstractTunnel" <|-- "Tunnel"
"AbstractTunnel" <|-- "TunnelPart"
"core:AbstractCityObject" <|-- "TunnelInstallation"
"core:AbstractCityObject" <|-- "IntTunnelInstallation"
"core:AbstractCityObject" <|-- "AbstractBoundarySurface"
"AbstractBoundarySurface" <|-- "RoofSurface"
"AbstractBoundarySurface" <|-- "WallSurface"
"AbstractBoundarySurface" <|-- "GroundSurface"
"AbstractBoundarySurface" <|-- "ClosureSurface"
"AbstractBoundarySurface" <|-- "FloorSurface"
"AbstractBoundarySurface" <|-- "OuterFloorSurface"
"AbstractBoundarySurface" <|-- "InteriorWallSurface"
"AbstractBoundarySurface" <|-- "CeilingSurface"
"AbstractBoundarySurface" <|-- "OuterCeilingSurface"
"core:AbstractCityObject" <|-- "HollowSpace"
"core:AbstractCityObject" <|-- "TunnelFurniture"
"core:AbstractCityObject" <|-- "AbstractOpening"
"AbstractOpening" <|-- "Window"
"AbstractOpening" <|-- "Door"

' Property pseudo-classes are removed from rendering by default;
' remove the next line to show them.
remove $property

' Attributes with value types from other namespaces are marked as
' protected members (# ) and shown by default; uncomment the next
' line to hide them.
' hide protected members

footer Generated on 2026-08-03 13:10:55
@enduml
